<svg width="16" height="16" viewBox="0 0 16 16" fill="none" xmlns="http://www.w3.org/2000/svg">
<g id="Mid Home Icon" clip-path="url(#clip0_393_2)">
<path id="Home" d="M5 15H2C1.44772 15 1 14.5523 1 14V7.02924C1 6.38333 1.31193 5.77719 1.83752 5.40177L7.41876 1.41517C7.76646 1.16681 8.23354 1.16681 8.58124 1.41517L14.1625 5.40177C14.6881 5.77719 15 6.38333 15 7.02924V14C15 14.5523 14.5523 15 14 15H11C10.4477 15 10 14.5523 10 14V11C10 10.4477 9.55229 10 9 10H7C6.44772 10 6 10.4477 6 11V14C6 14.5523 5.55228 15 5 15Z" stroke="black"/>
</g>
<defs>
<clipPath id="clip0_393_2">
<rect width="16" height="16" fill="white"/>
</clipPath>
</defs>
</svg>
