<svg width="13" height="21" viewBox="0 0 13 21" fill="none" xmlns="http://www.w3.org/2000/svg">
<g id="Location Icon">
<path id="Subtract" fill-rule="evenodd" clip-rule="evenodd" d="M7.87396 17.8505C10.7106 13.0866 12.6154 9.88761 12.6154 6.30769C12.6154 2.82405 9.79133 0 6.30769 0C2.82405 0 0 2.82405 0 6.30769C0 10.5128 2.10256 14.1923 6.30769 20.5C6.85475 19.5622 7.37857 18.6825 7.87396 17.8505ZM6.30772 9.46153C8.04954 9.46153 9.46156 8.04951 9.46156 6.30769C9.46156 4.56586 8.04954 3.15384 6.30772 3.15384C4.56589 3.15384 3.15387 4.56586 3.15387 6.30769C3.15387 8.04951 4.56589 9.46153 6.30772 9.46153Z" fill="#FF0000"/>
</g>
</svg>
