<svg width="20" height="20" viewBox="0 0 20 20" fill="none" xmlns="http://www.w3.org/2000/svg">
<g id="Rating Star" clip-path="url(#clip0_333_2)">
<path id="StarIcon" d="M9.52447 1.96353C9.67415 1.50287 10.3259 1.50287 10.4755 1.96353L12.1329 7.06434C12.1998 7.27035 12.3918 7.40983 12.6084 7.40983H17.9717C18.4561 7.40983 18.6575 8.02964 18.2656 8.31434L13.9266 11.4668C13.7514 11.5941 13.678 11.8198 13.745 12.0258L15.4023 17.1266C15.552 17.5873 15.0248 17.9704 14.6329 17.6857L10.2939 14.5332C10.1186 14.4059 9.88135 14.4059 9.70611 14.5332L5.3671 17.6857C4.97524 17.9704 4.448 17.5873 4.59768 17.1266L6.25503 12.0258C6.32197 11.8198 6.24864 11.5941 6.07339 11.4668L1.73438 8.31434C1.34253 8.02964 1.54392 7.40983 2.02828 7.40983H7.39159C7.6082 7.40983 7.80018 7.27035 7.86712 7.06434L9.52447 1.96353Z" fill="white" stroke="black" stroke-width="1.5" stroke-linejoin="round"/>
</g>
<defs>
<clipPath id="clip0_333_2">
<rect width="20" height="20" fill="white"/>
</clipPath>
</defs>
</svg>
